<?xml version="1.0" standalone="no"?>
<!DOCTYPE svg PUBLIC "-//W3C//DTD SVG 20010904//EN"
 "http://www.w3.org/TR/2001/REC-SVG-20010904/DTD/svg10.dtd">
<svg version="1.0" xmlns="http://www.w3.org/2000/svg"
 width="512.000000pt" height="512.000000pt" viewBox="0 0 512.000000 512.000000"
 preserveAspectRatio="xMidYMid meet">
<metadata>
Created by potrace 1.14, written by Peter Selinger 2001-2017
</metadata>
<g transform="translate(0.000000,512.000000) scale(0.100000,-0.100000)"
fill="#000000" stroke="none">
<path d="M2461 5103 c-139 -48 -223 -171 -217 -317 l2 -56 -710 0 c-693 0
-712 -1 -744 -20 -18 -11 -37 -31 -42 -44 -5 -14 -8 -947 -7 -2315 l2 -2291
28 -27 27 -28 1755 -3 1754 -2 33 29 33 29 2 2292 c1 1369 -2 2301 -7 2316 -5
13 -24 33 -42 44 -32 19 -51 20 -743 20 l-710 0 -1 73 c0 125 -70 234 -182
288 -60 28 -169 34 -231 12z"/>
</g>
</svg>
